# xmcd
#
# Track frame offsets: 
#        150
#        26400
#        51000
#        77475
#        103500
#        132750
#        173850
#
# Disc length: 3039 seconds
#
# Revision: 0
# Processed by: cddbd v1.5.2PL0 Copyright (c) Steve Scherf et al.
# Submitted via: ExactAudioCopy v0.99pb5
#
DISCID=4a0bdd07
DTITLE=John Mayall and The Bluesbreakers - Newport Jazz Festival '91
DYEAR=1991
DGENRE=Blues
TTITLE0=Congo Square
TTITLE1=I Can't Complain
TTITLE2=Chicago Line
TTITLE3=The Sensitive Kind
TTITLE4=The Last Time
TTITLE5=All of My Life
TTITLE6=Room to Move
EXTD=
EXTT0=
EXTT1=
EXTT2=
EXTT3=
EXTT4=
EXTT5=
EXTT6=
PLAYORDER=
